<svg id="svg" version="1.1" width="400" height="400" viewBox="0 0 400 400" xmlns="http://www.w3.org/2000/svg" xmlns:xlink="http://www.w3.org/1999/xlink" ><g id="svgg"><path id="path0" d="M0.000 200.000 L 0.000 400.000 200.000 400.000 L 400.000 400.000 400.000 200.000 L 400.000 0.000 200.000 0.000 L 0.000 0.000 0.000 200.000 M194.701 110.000 C 200.272 111.331,204.475 113.983,206.299 117.319 C 206.948 118.505,207.008 121.032,207.109 151.500 C 207.169 169.595,207.349 184.395,207.509 184.389 C 207.669 184.383,219.035 168.442,232.767 148.964 C 248.175 127.109,258.409 112.956,259.499 111.997 C 270.166 102.607,294.778 117.512,293.039 132.309 C 292.528 136.655,293.666 135.120,256.526 181.600 C 251.091 188.403,246.845 194.065,246.930 194.400 C 247.013 194.730,253.193 204.360,260.662 215.800 C 268.132 227.240,280.651 246.412,288.482 258.404 C 304.009 282.180,304.222 282.580,303.912 287.405 C 303.243 297.842,292.244 306.474,279.295 306.727 C 267.734 306.953,270.525 309.964,241.751 266.226 C 219.631 232.601,218.159 230.468,217.530 231.113 C 217.162 231.491,214.692 234.590,212.043 238.000 L 207.224 244.200 207.208 269.600 L 207.192 295.000 206.259 297.000 C 200.707 308.897,170.971 308.772,165.446 296.828 L 164.600 295.000 164.600 207.200 L 164.600 119.400 165.527 117.518 C 168.956 110.557,182.462 107.077,194.701 110.000 M130.253 266.446 C 145.111 271.035,149.492 290.204,138.238 301.381 C 133.647 305.941,131.995 306.572,124.234 306.728 L 117.869 306.857 114.834 305.366 C 91.623 293.959,105.546 258.814,130.253 266.446 " stroke="none" fill="#9be464" fill-rule="evenodd"></path><path id="path1" d="M180.591 109.995 C 172.455 111.191,166.594 115.002,165.616 119.732 C 165.318 121.172,165.220 148.134,165.294 208.600 L 165.400 295.400 166.492 297.258 C 172.539 307.544,199.142 307.806,205.120 297.638 L 206.200 295.800 206.400 269.800 L 206.600 243.800 212.139 236.700 C 215.185 232.795,217.839 229.600,218.036 229.600 C 218.523 229.600,219.660 231.222,226.328 241.430 C 229.479 246.254,236.589 257.081,242.128 265.492 C 247.668 273.903,255.170 285.304,258.800 290.828 C 268.447 305.510,269.060 305.977,278.691 305.991 C 291.703 306.010,302.692 297.444,303.140 286.933 C 303.345 282.127,304.474 284.134,283.829 252.600 C 281.381 248.860,274.882 238.915,269.389 230.500 C 263.895 222.085,256.385 210.586,252.700 204.947 C 249.015 199.308,246.000 194.459,246.000 194.171 C 246.000 193.882,249.922 188.731,254.715 182.723 C 294.933 132.317,292.200 136.104,292.200 130.779 C 292.200 120.275,278.049 108.584,266.742 109.747 C 261.933 110.241,259.868 111.854,254.693 119.155 C 246.384 130.879,238.628 141.859,223.217 163.714 C 214.563 175.986,207.284 185.961,207.041 185.880 C 206.726 185.776,206.543 176.091,206.400 152.101 L 206.200 118.469 204.987 116.734 C 201.328 111.501,190.568 108.529,180.591 109.995 M119.364 266.594 C 101.012 270.587,98.007 296.144,114.896 304.594 L 117.707 306.000 123.800 306.000 L 129.893 306.000 132.671 304.610 C 153.762 294.059,142.395 261.583,119.364 266.594 " stroke="none" fill="#fbfbfb" fill-rule="evenodd"></path><path id="path2" d="M184.291 109.089 C 185.001 109.177,186.261 109.179,187.091 109.092 C 187.921 109.005,187.340 108.933,185.800 108.931 C 184.260 108.929,183.581 109.000,184.291 109.089 M267.100 109.082 C 267.595 109.178,268.405 109.178,268.900 109.082 C 269.395 108.987,268.990 108.909,268.000 108.909 C 267.010 108.909,266.605 108.987,267.100 109.082 M176.920 109.999 C 175.335 110.414,173.535 111.027,172.920 111.361 C 171.376 112.198,171.818 112.145,174.325 111.192 C 175.493 110.748,177.833 110.134,179.525 109.828 C 181.384 109.492,182.046 109.266,181.200 109.258 C 180.430 109.250,178.504 109.584,176.920 109.999 M189.905 109.483 C 190.402 109.579,191.122 109.575,191.505 109.475 C 191.887 109.375,191.480 109.296,190.600 109.301 C 189.720 109.305,189.407 109.387,189.905 109.483 M273.051 109.958 C 279.778 111.801,286.388 116.602,290.169 122.391 C 290.956 123.596,291.600 124.436,291.600 124.259 C 291.600 120.203,278.440 110.239,271.985 109.406 C 270.648 109.234,270.915 109.372,273.051 109.958 M262.142 110.179 C 259.464 111.344,256.929 114.692,232.745 148.995 C 219.025 168.456,207.666 184.383,207.502 184.389 C 207.339 184.395,207.157 169.775,207.099 151.900 L 206.993 119.400 206.996 152.200 C 206.999 173.832,207.136 184.982,207.400 184.948 C 207.620 184.920,219.060 168.947,232.821 149.452 C 259.736 111.327,259.182 112.059,262.184 110.605 C 264.314 109.574,264.282 109.248,262.142 110.179 M197.212 110.977 C 201.659 112.616,204.955 115.202,206.164 118.000 C 206.497 118.770,206.776 119.112,206.784 118.760 C 206.845 116.272,199.388 110.290,196.400 110.429 C 196.070 110.444,196.435 110.690,197.212 110.977 M168.868 113.597 C 166.774 115.114,165.222 117.445,164.976 119.444 C 164.792 120.945,164.804 120.934,165.323 119.128 C 165.980 116.845,167.511 114.768,169.391 113.605 C 170.635 112.836,171.095 112.400,170.660 112.400 C 170.583 112.400,169.776 112.939,168.868 113.597 M164.596 207.200 C 164.596 254.610,164.643 274.005,164.700 250.300 C 164.757 226.595,164.757 187.805,164.700 164.100 C 164.643 140.395,164.596 159.790,164.596 207.200 M291.639 124.800 C 291.624 124.910,291.867 125.810,292.179 126.800 C 292.491 127.790,292.750 128.240,292.755 127.800 C 292.763 127.103,291.708 124.271,291.639 124.800 M292.920 130.800 C 292.920 132.010,292.995 132.505,293.087 131.900 C 293.178 131.295,293.178 130.305,293.087 129.700 C 292.995 129.095,292.920 129.590,292.920 130.800 M292.446 133.667 C 292.421 134.034,292.296 134.664,292.170 135.067 C 291.952 135.762,291.963 135.763,292.397 135.087 C 292.648 134.696,292.773 134.066,292.673 133.687 C 292.511 133.068,292.488 133.066,292.446 133.667 M290.924 137.527 C 290.449 138.337,280.232 151.330,268.219 166.400 C 255.900 181.855,246.443 194.062,246.528 194.400 C 246.611 194.730,254.495 206.970,264.048 221.600 C 273.601 236.230,286.184 255.512,292.009 264.449 C 297.834 273.386,302.663 280.643,302.740 280.575 C 302.818 280.508,296.437 270.586,288.562 258.526 C 280.687 246.467,268.132 227.240,260.662 215.800 C 253.193 204.360,247.014 194.730,246.931 194.400 C 246.847 194.066,251.178 188.295,256.690 181.394 C 288.727 141.287,292.363 136.630,291.952 136.219 C 291.861 136.128,291.399 136.717,290.924 137.527 M217.139 231.097 C 215.831 232.517,207.852 242.811,207.448 243.600 C 206.986 244.501,207.566 243.791,212.915 236.901 C 215.509 233.561,217.763 230.746,217.925 230.646 C 218.088 230.546,228.814 246.565,241.761 266.245 C 266.259 303.480,266.622 303.977,270.695 305.877 C 273.801 307.325,284.503 307.147,288.203 305.586 C 295.201 302.632,303.651 294.093,303.591 290.036 C 303.585 289.686,303.161 290.420,302.648 291.668 C 298.885 300.818,289.773 306.403,278.622 306.396 C 268.198 306.389,269.121 307.274,251.400 280.294 C 213.548 222.664,218.439 229.686,217.139 231.097 M206.893 269.600 L 206.792 295.000 205.851 297.022 C 205.333 298.134,204.119 299.732,203.154 300.571 C 202.189 301.411,201.776 301.905,202.234 301.670 C 203.628 300.955,205.848 298.227,206.553 296.361 C 207.152 294.774,207.207 292.106,207.106 269.400 L 206.994 244.200 206.893 269.600 M123.105 265.483 C 123.602 265.579,124.322 265.575,124.705 265.475 C 125.087 265.375,124.680 265.296,123.800 265.301 C 122.920 265.305,122.607 265.387,123.105 265.483 M120.100 265.876 C 120.485 265.976,121.115 265.976,121.500 265.876 C 121.885 265.775,121.570 265.693,120.800 265.693 C 120.030 265.693,119.715 265.775,120.100 265.876 M114.420 267.515 C 110.916 269.259,104.782 275.617,104.804 277.481 C 104.806 277.656,105.497 276.720,106.340 275.400 C 108.800 271.548,111.869 268.973,116.200 267.127 C 117.080 266.752,117.530 266.441,117.200 266.437 C 116.870 266.433,115.619 266.918,114.420 267.515 M133.372 268.108 C 136.362 269.729,140.282 273.661,141.920 276.680 C 142.612 277.956,143.182 278.820,143.186 278.600 C 143.232 275.907,134.093 266.768,131.400 266.814 C 131.180 266.818,132.067 267.400,133.372 268.108 M104.046 279.239 C 103.801 279.943,103.613 280.718,103.628 280.960 C 103.644 281.202,103.914 280.696,104.230 279.835 C 104.545 278.974,104.733 278.200,104.648 278.115 C 104.562 278.029,104.292 278.535,104.046 279.239 M143.229 279.200 C 143.232 279.310,143.496 280.390,143.816 281.600 C 144.367 283.681,144.387 283.704,144.185 282.038 C 144.019 280.672,143.207 278.260,143.229 279.200 M303.734 286.400 C 303.734 288.050,303.805 288.725,303.891 287.900 C 303.978 287.075,303.978 285.725,303.891 284.900 C 303.805 284.075,303.734 284.750,303.734 286.400 M102.928 286.400 C 102.928 287.830,103.001 288.415,103.089 287.700 C 103.178 286.985,103.178 285.815,103.089 285.100 C 103.001 284.385,102.928 284.970,102.928 286.400 M144.531 286.600 C 144.533 288.140,144.605 288.721,144.692 287.891 C 144.779 287.061,144.777 285.801,144.689 285.091 C 144.600 284.381,144.529 285.060,144.531 286.600 M143.632 292.046 C 143.492 294.902,138.613 301.414,134.695 303.974 C 133.326 304.868,132.355 305.600,132.536 305.600 C 135.437 305.600,144.818 294.294,143.876 291.933 C 143.724 291.551,143.654 291.584,143.632 292.046 M104.414 294.200 C 104.373 296.612,110.502 303.209,114.754 305.328 L 117.707 306.800 123.754 306.782 C 128.232 306.769,130.111 306.611,131.000 306.176 C 131.660 305.853,131.840 305.720,131.400 305.881 C 130.960 306.043,127.735 306.238,124.234 306.316 L 117.869 306.457 114.870 304.975 C 111.280 303.200,107.605 299.669,105.708 296.172 C 105.000 294.867,104.418 293.980,104.414 294.200 M165.216 296.240 C 165.126 298.724,173.615 304.921,176.915 304.779 C 177.182 304.768,176.300 304.349,174.955 303.849 C 170.420 302.164,167.368 299.864,165.863 297.000 C 165.516 296.340,165.225 295.998,165.216 296.240 M198.400 303.227 C 196.970 303.858,196.020 304.380,196.289 304.387 C 196.917 304.404,201.200 302.515,201.200 302.222 C 201.200 302.100,201.155 302.018,201.100 302.040 C 201.045 302.062,199.830 302.597,198.400 303.227 M193.600 304.800 C 192.796 305.057,192.757 305.123,193.400 305.132 C 193.840 305.138,194.560 304.989,195.000 304.800 C 196.019 304.362,194.968 304.362,193.600 304.800 M180.305 305.483 C 180.802 305.579,181.522 305.575,181.905 305.475 C 182.287 305.375,181.880 305.296,181.000 305.301 C 180.120 305.305,179.807 305.387,180.305 305.483 M190.305 305.483 C 190.802 305.579,191.522 305.575,191.905 305.475 C 192.287 305.375,191.880 305.296,191.000 305.301 C 190.120 305.305,189.807 305.387,190.305 305.483 M184.500 305.891 C 185.325 305.978,186.675 305.978,187.500 305.891 C 188.325 305.805,187.650 305.734,186.000 305.734 C 184.350 305.734,183.675 305.805,184.500 305.891 " stroke="none" fill="#bceb99" fill-rule="evenodd"></path><path id="path3" d="M181.000 109.595 C 180.120 109.750,181.560 109.790,184.200 109.683 C 186.840 109.576,189.075 109.424,189.167 109.345 C 189.457 109.093,182.670 109.301,181.000 109.595 M264.953 109.580 C 259.896 110.787,261.673 108.583,232.821 149.452 C 219.060 168.947,207.620 184.875,207.400 184.849 C 207.139 184.817,206.931 173.318,206.800 151.700 C 206.577 114.805,206.815 117.674,203.733 114.741 C 201.068 112.205,194.210 109.532,190.636 109.636 C 189.956 109.656,190.775 109.921,192.455 110.225 C 198.410 111.303,202.774 113.569,204.987 116.734 L 206.200 118.469 206.400 152.101 C 206.543 176.091,206.726 185.776,207.041 185.880 C 207.284 185.961,214.563 175.986,223.217 163.714 C 238.628 141.859,246.384 130.879,254.693 119.155 C 260.445 111.040,262.331 109.791,268.800 109.813 C 270.957 109.820,272.081 109.711,271.400 109.560 C 269.787 109.203,266.487 109.213,264.953 109.580 M174.578 111.132 C 168.882 113.115,166.073 115.714,165.207 119.800 C 164.915 121.181,164.817 148.657,164.892 208.600 L 165.000 295.400 165.871 297.027 C 171.928 308.343,200.587 308.325,205.859 297.003 L 206.792 295.000 206.796 269.874 C 206.799 251.871,206.929 244.506,207.255 243.897 C 207.840 242.804,216.971 231.088,217.727 230.461 C 218.373 229.925,216.141 226.612,255.017 285.800 C 268.660 306.571,268.452 306.389,278.622 306.396 C 291.788 306.405,303.058 297.688,303.542 287.121 C 303.760 282.352,304.028 282.817,278.480 243.698 C 265.298 223.514,252.668 204.165,250.414 200.700 C 248.159 197.235,246.403 194.175,246.511 193.900 C 246.620 193.625,256.538 181.070,268.553 166.000 C 294.326 133.672,294.212 133.861,292.210 126.976 C 290.191 120.029,280.923 111.587,273.800 110.205 C 273.140 110.077,273.722 110.405,275.094 110.934 C 287.823 115.840,295.456 127.893,291.135 136.264 C 290.179 138.116,283.024 147.243,254.715 182.723 C 249.922 188.731,246.000 193.882,246.000 194.171 C 246.000 194.459,249.015 199.308,252.700 204.947 C 256.385 210.586,263.895 222.085,269.389 230.500 C 274.882 238.915,281.381 248.860,283.829 252.600 C 304.474 284.134,303.345 282.127,303.140 286.933 C 302.692 297.444,291.703 306.010,278.691 305.991 C 269.060 305.977,268.447 305.510,258.800 290.828 C 255.170 285.304,247.668 273.903,242.128 265.492 C 236.589 257.081,229.479 246.254,226.328 241.430 C 219.660 231.222,218.523 229.600,218.036 229.600 C 217.839 229.600,215.185 232.795,212.139 236.700 L 206.600 243.800 206.400 269.800 L 206.200 295.800 205.120 297.638 C 199.142 307.806,172.539 307.544,166.492 297.258 L 165.400 295.400 165.294 208.600 C 165.220 148.134,165.318 121.172,165.616 119.732 C 166.433 115.780,170.000 112.874,176.400 110.946 C 178.050 110.449,179.040 110.036,178.600 110.027 C 178.160 110.018,176.350 110.515,174.578 111.132 M124.792 266.050 C 133.946 267.110,140.781 272.623,143.276 280.959 C 143.836 282.829,143.955 283.026,143.788 281.800 C 142.656 273.500,132.569 265.435,123.600 265.659 C 122.202 265.694,122.469 265.781,124.792 266.050 M117.043 266.837 C 110.283 269.162,103.457 277.163,103.626 282.563 C 103.641 283.023,103.913 282.430,104.232 281.245 C 106.193 273.955,112.182 268.156,119.364 266.594 C 120.910 266.257,121.361 266.057,120.600 266.045 C 119.940 266.035,118.340 266.392,117.043 266.837 M103.334 286.400 C 103.334 288.050,103.405 288.725,103.491 287.900 C 103.578 287.075,103.578 285.725,103.491 284.900 C 103.405 284.075,103.334 284.750,103.334 286.400 M144.077 286.216 C 143.861 294.102,139.447 301.220,132.671 304.610 L 129.893 306.000 123.800 306.000 L 117.707 306.000 114.896 304.594 C 110.111 302.200,105.699 296.823,104.198 291.558 C 103.666 289.689,103.610 289.615,103.782 291.000 C 104.383 295.855,109.522 302.331,114.870 304.975 L 117.869 306.457 124.234 306.328 C 136.554 306.080,144.951 297.546,144.297 285.940 L 144.154 283.400 144.077 286.216 " stroke="none" fill="#ccf3b4" fill-rule="evenodd"></path><path id="path4" d="" stroke="none" fill="#94dc5b" fill-rule="evenodd"></path></g></svg>